<svg width="26" height="27" viewBox="0 0 26 27" fill="none" xmlns="http://www.w3.org/2000/svg">
<path d="M13 2.125C6.71836 2.125 1.625 7.21836 1.625 13.5C1.625 19.7816 6.71836 24.875 13 24.875C19.2816 24.875 24.375 19.7816 24.375 13.5C24.375 7.21836 19.2816 2.125 13 2.125ZM13 22.9453C7.78477 22.9453 3.55469 18.7152 3.55469 13.5C3.55469 8.28477 7.78477 4.05469 13 4.05469C18.2152 4.05469 22.4453 8.28477 22.4453 13.5C22.4453 18.7152 18.2152 22.9453 13 22.9453Z" fill="white"/>
<path d="M17.4357 16.7144L13.815 14.0967V7.8125C13.815 7.70078 13.7236 7.60938 13.6119 7.60938H12.3906C12.2789 7.60938 12.1875 7.70078 12.1875 7.8125V14.8051C12.1875 14.8711 12.218 14.932 12.2713 14.9701L16.4709 18.0322C16.5623 18.0982 16.6893 18.0779 16.7553 17.9891L17.4814 16.9988C17.5475 16.9049 17.5271 16.7779 17.4357 16.7144Z" fill="white"/>
</svg>
