<svg width="73" height="73" viewBox="0 0 73 73" fill="none" xmlns="http://www.w3.org/2000/svg">
<rect width="73" height="73" rx="10" fill="#5845E6"/>
<path d="M31.3802 60V50.568H41.1002V60H31.3802ZM31.6682 46.104C31.6682 43.272 31.8842 40.992 32.3162 39.264C32.7482 37.536 33.5882 35.952 34.8362 34.512C35.5562 33.648 36.3722 32.904 37.2842 32.28C38.1962 31.656 39.0362 31.008 39.8042 30.336C40.5722 29.616 41.2202 28.824 41.7482 27.96C42.2762 27.096 42.5402 25.968 42.5402 24.576C42.5402 22.224 41.8922 20.592 40.5962 19.68C39.3002 18.72 37.7642 18.24 35.9882 18.24C33.4442 18.24 31.6922 18.96 30.7322 20.4C29.7722 21.792 29.1722 23.688 28.9322 26.088H19.6442C19.6442 23.736 20.0282 21.6 20.7962 19.68C21.5642 17.76 22.6442 16.128 24.0362 14.784C25.4762 13.44 27.1802 12.408 29.1482 11.688C31.1642 10.968 33.3722 10.608 35.7722 10.608C40.9562 10.608 45.0362 11.664 48.0122 13.776C51.0362 15.888 52.5482 19.32 52.5482 24.072C52.5482 25.608 52.3802 26.952 52.0442 28.104C51.7562 29.256 51.3002 30.312 50.6762 31.272C50.0522 32.184 49.2842 33.048 48.3722 33.864C47.4602 34.68 46.4282 35.52 45.2762 36.384C44.2202 37.2 43.3562 37.968 42.6842 38.688C42.0602 39.36 41.5802 40.08 41.2442 40.848C40.9082 41.616 40.6922 42.432 40.5962 43.296C40.5002 44.112 40.4522 45.048 40.4522 46.104H31.6682Z" fill="white"/>
</svg>
